# xmcd
#
# Track frame offsets:
#	150
#	17064
#	29516
#	41448
#	58383
#	71575
#	85511
#	101217
#	114133
#	137432
#	153639
#	171342
#	189899
#	204072
#	222621
#
# Disc length: 3222 seconds
#
# Revision: 1
# Processed by: cddbd v1.5.2PL0 Copyright (c) Steve Scherf et al.
# Submitted via: audiograbber 1.83.01
#
DISCID=cb0c940f
DTITLE=Various Artist - Record Kicks 15th
DYEAR=2018
DGENRE=R&B
TTITLE0=The Devonns - Come Back
TTITLE1=The Tibbs - The Strange Effect
TTITLE2=Marta Ren and the Groovelvets - I'm Not Your Regular Woman
TTITLE3=Third Coast Kings - Love You Back
TTITLE4=Baby Charles - This Time
TTITLE5=Calibro 35 - Psycheground
TTITLE6=Martha High - Don't Throw Your Love in the Garbage Can
TTITLE7=Tanika Charles - Money
TTITLE8=The New Mastersounds - Idle Time (Lack of Afro Rmx)
TTITLE9=Diplomats of Solid Sound - Hurt Me So
TTITLE10=The Crabs Corporation - The Sort
TTITLE11=Dojo Cuts - You Don't Know Me
TTITLE12=The Hook and Slingers - Top Dog
TTITLE13=The Fairful Brothers - One More Time
TTITLE14=Hannah Williams and the Affimations - Late Nights and Heartbreak
EXTD=
EXTT0=
EXTT1=
EXTT2=
EXTT3=
EXTT4=
EXTT5=
EXTT6=
EXTT7=
EXTT8=
EXTT9=
EXTT10=
EXTT11=
EXTT12=
EXTT13=
EXTT14=
PLAYORDER=
